<svg width="505" height="109" viewBox="0 0 505 109" fill="none" xmlns="http://www.w3.org/2000/svg">
<path d="M19.627 29H56.627" stroke="#0968A8" stroke-width="8" stroke-linecap="square"/>
<path d="M4.63062 28.6644L4.0655 104.393" stroke="#0968A8" stroke-width="8" stroke-linecap="square"/>
<path d="M5.19604 104.389H28.9307" stroke="#0968A8" stroke-width="8" stroke-linecap="round"/>
<path d="M5.76099 55.7898H27.2352" stroke="#0968A8" stroke-width="8" stroke-linecap="round"/>
<path d="M102.704 38.1993H124.144C125.253 38.1993 126.171 38.5619 126.896 39.2873C127.664 39.9699 128.048 40.8659 128.048 41.9753C128.048 43.0419 127.664 43.9166 126.896 44.5993C126.171 45.2393 125.253 45.5593 124.144 45.5593H106.224L106.8 44.4713V56.9513L106.288 56.4393H121.264C122.373 56.4393 123.291 56.8019 124.016 57.5273C124.784 58.2099 125.168 59.1059 125.168 60.2153C125.168 61.2819 124.784 62.1566 124.016 62.8393C123.291 63.4793 122.373 63.7993 121.264 63.7993H106.48L106.8 63.2873V76.2153L106.288 75.6393H124.144C125.253 75.6393 126.171 76.0233 126.896 76.7913C127.664 77.5166 128.048 78.3699 128.048 79.3513C128.048 80.4179 127.664 81.2926 126.896 81.9753C126.171 82.6579 125.253 82.9993 124.144 82.9993H102.704C101.595 82.9993 100.656 82.6366 99.888 81.9113C99.1627 81.1433 98.8 80.2046 98.8 79.0953V42.1033C98.8 40.9939 99.1627 40.0766 99.888 39.3513C100.656 38.5833 101.595 38.1993 102.704 38.1993ZM163.145 35.6393C164.254 35.6393 165.171 36.0019 165.896 36.7273C166.622 37.4526 166.985 38.3913 166.985 39.5433V79.0953C166.985 80.2046 166.622 81.1433 165.896 81.9113C165.171 82.6366 164.254 82.9993 163.145 82.9993C162.035 82.9993 161.118 82.6366 160.392 81.9113C159.667 81.1433 159.305 80.2046 159.305 79.0953V75.9593L160.713 76.5353C160.713 77.0899 160.414 77.7726 159.817 78.5833C159.219 79.3513 158.409 80.1193 157.385 80.8873C156.361 81.6553 155.145 82.3166 153.736 82.8713C152.371 83.3833 150.878 83.6393 149.257 83.6393C146.312 83.6393 143.646 82.8926 141.257 81.3993C138.867 79.8633 136.968 77.7726 135.56 75.1273C134.195 72.4393 133.512 69.3673 133.512 65.9113C133.512 62.4126 134.195 59.3406 135.56 56.6953C136.968 54.0073 138.846 51.9166 141.193 50.4233C143.539 48.8873 146.142 48.1193 149 48.1193C150.835 48.1193 152.521 48.3966 154.057 48.9513C155.593 49.5059 156.915 50.2099 158.024 51.0633C159.177 51.9166 160.051 52.7913 160.649 53.6873C161.289 54.5406 161.609 55.2659 161.609 55.8633L159.305 56.6953V39.5433C159.305 38.4339 159.667 37.5166 160.392 36.7913C161.118 36.0233 162.035 35.6393 163.145 35.6393ZM150.217 76.5993C152.094 76.5993 153.737 76.1299 155.145 75.1913C156.553 74.2526 157.641 72.9726 158.409 71.3513C159.219 69.7299 159.625 67.9166 159.625 65.9113C159.625 63.8633 159.219 62.0286 158.409 60.4073C157.641 58.7859 156.553 57.5059 155.145 56.5673C153.737 55.6286 152.094 55.1593 150.217 55.1593C148.382 55.1593 146.761 55.6286 145.352 56.5673C143.944 57.5059 142.835 58.7859 142.024 60.4073C141.256 62.0286 140.872 63.8633 140.872 65.9113C140.872 67.9166 141.256 69.7299 142.024 71.3513C142.835 72.9726 143.944 74.2526 145.352 75.1913C146.761 76.1299 148.382 76.5993 150.217 76.5993ZM202.348 48.7593C203.457 48.7593 204.375 49.1433 205.1 49.9113C205.825 50.6366 206.188 51.5539 206.188 52.6633V68.9193C206.188 73.4419 204.929 77.0259 202.412 79.6713C199.895 82.3166 196.268 83.6393 191.532 83.6393C186.796 83.6393 183.169 82.3166 180.652 79.6713C178.177 77.0259 176.94 73.4419 176.94 68.9193V52.6633C176.94 51.5539 177.303 50.6366 178.028 49.9113C178.753 49.1433 179.671 48.7593 180.78 48.7593C181.889 48.7593 182.807 49.1433 183.532 49.9113C184.257 50.6366 184.62 51.5539 184.62 52.6633V68.9193C184.62 71.5219 185.196 73.4633 186.348 74.7433C187.5 75.9806 189.228 76.5993 191.532 76.5993C193.879 76.5993 195.628 75.9806 196.78 74.7433C197.932 73.4633 198.508 71.5219 198.508 68.9193V52.6633C198.508 51.5539 198.871 50.6366 199.596 49.9113C200.321 49.1433 201.239 48.7593 202.348 48.7593Z" fill="#0099FF"/>
<path d="M234.278 38.1993C236.497 38.1993 238.566 38.8393 240.486 40.1193C242.449 41.3993 244.028 43.1273 245.222 45.3033C246.417 47.4793 247.014 49.9113 247.014 52.5993C247.014 55.2446 246.417 57.6553 245.222 59.8313C244.028 62.0073 242.449 63.7566 240.486 65.0793C238.566 66.3593 236.497 66.9993 234.278 66.9993H222.502L223.142 65.8473V79.0953C223.142 80.2046 222.801 81.1433 222.118 81.9113C221.436 82.6366 220.54 82.9993 219.43 82.9993C218.364 82.9993 217.489 82.6366 216.806 81.9113C216.124 81.1433 215.782 80.2046 215.782 79.0953V42.1033C215.782 40.9939 216.145 40.0766 216.87 39.3513C217.638 38.5833 218.577 38.1993 219.686 38.1993H234.278ZM234.278 59.7033C235.089 59.7033 235.878 59.3619 236.646 58.6793C237.414 57.9966 238.054 57.1219 238.566 56.0553C239.078 54.9459 239.334 53.7939 239.334 52.5993C239.334 51.3619 239.078 50.2099 238.566 49.1433C238.054 48.0766 237.414 47.2233 236.646 46.5833C235.878 45.9006 235.089 45.5593 234.278 45.5593H222.374L223.142 44.4073V60.7273L222.438 59.7033H234.278ZM258.185 82.9993C257.076 82.9993 256.158 82.6366 255.433 81.9113C254.708 81.1433 254.345 80.2046 254.345 79.0953V52.6633C254.345 51.5539 254.708 50.6366 255.433 49.9113C256.158 49.1433 257.076 48.7593 258.185 48.7593C259.294 48.7593 260.212 49.1433 260.937 49.9113C261.662 50.6366 262.025 51.5539 262.025 52.6633V58.6793L261.577 54.3913C262.046 53.3673 262.644 52.4713 263.369 51.7033C264.137 50.8926 264.99 50.2313 265.929 49.7193C266.868 49.1646 267.87 48.7593 268.937 48.5033C270.004 48.2473 271.07 48.1193 272.137 48.1193C273.417 48.1193 274.484 48.4819 275.337 49.2073C276.233 49.9326 276.681 50.7859 276.681 51.7673C276.681 53.1753 276.318 54.1993 275.593 54.8393C274.868 55.4366 274.078 55.7353 273.225 55.7353C272.414 55.7353 271.668 55.5859 270.985 55.2873C270.345 54.9886 269.598 54.8393 268.745 54.8393C267.977 54.8393 267.188 55.0313 266.377 55.4153C265.609 55.7566 264.884 56.3113 264.201 57.0793C263.561 57.8473 263.028 58.8073 262.601 59.9593C262.217 61.0686 262.025 62.3913 262.025 63.9273V79.0953C262.025 80.2046 261.662 81.1433 260.937 81.9113C260.212 82.6366 259.294 82.9993 258.185 82.9993ZM297.425 83.6393C293.799 83.6393 290.641 82.8926 287.953 81.3993C285.308 79.8633 283.26 77.7939 281.809 75.1913C280.401 72.5886 279.697 69.6446 279.697 66.3593C279.697 62.5193 280.465 59.2553 282.001 56.5673C283.58 53.8366 285.628 51.7459 288.145 50.2953C290.663 48.8446 293.329 48.1193 296.145 48.1193C298.321 48.1193 300.369 48.5673 302.289 49.4633C304.252 50.3593 305.98 51.5966 307.473 53.1753C308.967 54.7113 310.14 56.5033 310.993 58.5513C311.889 60.5993 312.337 62.7753 312.337 65.0793C312.295 66.1033 311.889 66.9353 311.121 67.5753C310.353 68.2153 309.457 68.5353 308.433 68.5353H283.985L282.065 62.1353H305.553L304.145 63.4153V61.6873C304.06 60.4499 303.612 59.3406 302.801 58.3593C302.033 57.3779 301.052 56.6099 299.857 56.0553C298.705 55.4579 297.468 55.1593 296.145 55.1593C294.865 55.1593 293.671 55.3299 292.561 55.6713C291.452 56.0126 290.492 56.5886 289.681 57.3993C288.871 58.2099 288.231 59.2979 287.761 60.6633C287.292 62.0286 287.057 63.7566 287.057 65.8473C287.057 68.1513 287.527 70.1139 288.465 71.7353C289.447 73.3139 290.684 74.5299 292.177 75.3833C293.713 76.1939 295.335 76.5993 297.041 76.5993C298.62 76.5993 299.879 76.4713 300.817 76.2153C301.756 75.9593 302.503 75.6606 303.057 75.3193C303.655 74.9353 304.188 74.6153 304.657 74.3593C305.425 73.9753 306.151 73.7833 306.833 73.7833C307.772 73.7833 308.54 74.1033 309.137 74.7433C309.777 75.3833 310.097 76.1299 310.097 76.9833C310.097 78.1353 309.5 79.1806 308.305 80.1193C307.196 81.0579 305.639 81.8899 303.633 82.6153C301.628 83.2979 299.559 83.6393 297.425 83.6393ZM317.703 77.6873C317.277 77.0899 317.085 76.3219 317.127 75.3833C317.17 74.4446 317.725 73.6339 318.791 72.9513C319.474 72.5246 320.199 72.3539 320.967 72.4393C321.735 72.4819 322.482 72.8659 323.207 73.5913C324.445 74.8286 325.746 75.7886 327.111 76.4713C328.477 77.1539 330.183 77.4953 332.231 77.4953C332.871 77.4526 333.575 77.3673 334.343 77.2393C335.111 77.0686 335.773 76.7273 336.327 76.2153C336.925 75.6606 337.223 74.8286 337.223 73.7193C337.223 72.7806 336.903 72.0339 336.263 71.4793C335.623 70.9246 334.77 70.4553 333.703 70.0713C332.679 69.6873 331.527 69.3246 330.247 68.9833C328.925 68.5993 327.559 68.1726 326.151 67.7033C324.786 67.2339 323.527 66.6366 322.375 65.9113C321.223 65.1433 320.285 64.1406 319.559 62.9033C318.834 61.6659 318.471 60.1086 318.471 58.2313C318.471 56.0979 319.069 54.2846 320.263 52.7913C321.458 51.2979 322.994 50.1459 324.871 49.3353C326.791 48.5246 328.797 48.1193 330.887 48.1193C332.21 48.1193 333.597 48.2899 335.047 48.6313C336.498 48.9299 337.885 49.4419 339.207 50.1673C340.53 50.8499 341.639 51.7673 342.535 52.9193C343.005 53.5593 343.282 54.3273 343.367 55.2233C343.453 56.1193 343.047 56.9299 342.151 57.6553C341.511 58.1673 340.765 58.4019 339.911 58.3593C339.058 58.2739 338.354 57.9753 337.799 57.4633C337.074 56.5246 336.093 55.7779 334.855 55.2233C333.661 54.6686 332.274 54.3913 330.695 54.3913C330.055 54.3913 329.351 54.4766 328.583 54.6473C327.858 54.7753 327.218 55.0953 326.663 55.6073C326.109 56.0766 325.831 56.8446 325.831 57.9113C325.831 58.8926 326.151 59.6819 326.791 60.2793C327.431 60.8339 328.285 61.3033 329.351 61.6873C330.461 62.0286 331.634 62.3699 332.871 62.7113C334.151 63.0526 335.453 63.4579 336.775 63.9273C338.098 64.3966 339.314 65.0153 340.423 65.7833C341.533 66.5513 342.429 67.5539 343.111 68.7913C343.794 69.9859 344.135 71.5219 344.135 73.3993C344.135 75.5753 343.495 77.4313 342.215 78.9673C340.935 80.5033 339.335 81.6766 337.415 82.4873C335.495 83.2553 333.533 83.6393 331.527 83.6393C329.01 83.6393 326.493 83.2126 323.975 82.3593C321.458 81.4633 319.367 79.9059 317.703 77.6873ZM367.33 83.6393C363.704 83.6393 360.546 82.8926 357.858 81.3993C355.213 79.8633 353.165 77.7939 351.714 75.1913C350.306 72.5886 349.602 69.6446 349.602 66.3593C349.602 62.5193 350.37 59.2553 351.906 56.5673C353.485 53.8366 355.533 51.7459 358.05 50.2953C360.568 48.8446 363.234 48.1193 366.05 48.1193C368.226 48.1193 370.274 48.5673 372.194 49.4633C374.157 50.3593 375.885 51.5966 377.378 53.1753C378.872 54.7113 380.045 56.5033 380.898 58.5513C381.794 60.5993 382.242 62.7753 382.242 65.0793C382.2 66.1033 381.794 66.9353 381.026 67.5753C380.258 68.2153 379.362 68.5353 378.338 68.5353H353.89L351.97 62.1353H375.458L374.05 63.4153V61.6873C373.965 60.4499 373.517 59.3406 372.706 58.3593C371.938 57.3779 370.957 56.6099 369.762 56.0553C368.61 55.4579 367.373 55.1593 366.05 55.1593C364.77 55.1593 363.576 55.3299 362.466 55.6713C361.357 56.0126 360.397 56.5886 359.586 57.3993C358.776 58.2099 358.136 59.2979 357.666 60.6633C357.197 62.0286 356.962 63.7566 356.962 65.8473C356.962 68.1513 357.432 70.1139 358.37 71.7353C359.352 73.3139 360.589 74.5299 362.082 75.3833C363.618 76.1939 365.24 76.5993 366.946 76.5993C368.525 76.5993 369.784 76.4713 370.722 76.2153C371.661 75.9593 372.408 75.6606 372.962 75.3193C373.56 74.9353 374.093 74.6153 374.562 74.3593C375.33 73.9753 376.056 73.7833 376.738 73.7833C377.677 73.7833 378.445 74.1033 379.042 74.7433C379.682 75.3833 380.002 76.1299 380.002 76.9833C380.002 78.1353 379.405 79.1806 378.21 80.1193C377.101 81.0579 375.544 81.8899 373.538 82.6153C371.533 83.2979 369.464 83.6393 367.33 83.6393ZM407.896 48.1193C411.054 48.1193 413.443 48.7806 415.064 50.1033C416.728 51.4259 417.859 53.1966 418.456 55.4153C419.096 57.5913 419.416 60.0233 419.416 62.7113V79.0953C419.416 80.2046 419.054 81.1433 418.328 81.9113C417.603 82.6366 416.686 82.9993 415.576 82.9993C414.467 82.9993 413.55 82.6366 412.824 81.9113C412.099 81.1433 411.736 80.2046 411.736 79.0953V62.7113C411.736 61.3033 411.544 60.0446 411.16 58.9353C410.819 57.7833 410.179 56.8659 409.24 56.1833C408.302 55.5006 406.958 55.1593 405.208 55.1593C403.502 55.1593 402.051 55.5006 400.856 56.1833C399.704 56.8659 398.808 57.7833 398.168 58.9353C397.571 60.0446 397.272 61.3033 397.272 62.7113V79.0953C397.272 80.2046 396.91 81.1433 396.184 81.9113C395.459 82.6366 394.542 82.9993 393.432 82.9993C392.323 82.9993 391.406 82.6366 390.68 81.9113C389.955 81.1433 389.592 80.2046 389.592 79.0953V52.6633C389.592 51.5539 389.955 50.6366 390.68 49.9113C391.406 49.1433 392.323 48.7593 393.432 48.7593C394.542 48.7593 395.459 49.1433 396.184 49.9113C396.91 50.6366 397.272 51.5539 397.272 52.6633V55.4153L396.312 55.2233C396.696 54.4979 397.251 53.7299 397.976 52.9193C398.702 52.0659 399.555 51.2766 400.536 50.5513C401.518 49.8259 402.627 49.2499 403.864 48.8233C405.102 48.3539 406.446 48.1193 407.896 48.1193ZM443.59 48.1193C446.022 48.1193 448.134 48.3753 449.926 48.8873C451.76 49.3993 453.168 50.1246 454.15 51.0633C455.174 51.9593 455.686 53.0473 455.686 54.3273C455.686 55.1806 455.43 55.9913 454.918 56.7593C454.406 57.4846 453.659 57.8473 452.678 57.8473C451.995 57.8473 451.419 57.7619 450.95 57.5913C450.523 57.3779 450.139 57.1219 449.798 56.8233C449.456 56.5246 449.051 56.2473 448.582 55.9913C448.155 55.7353 447.494 55.5433 446.598 55.4153C445.744 55.2446 445.104 55.1593 444.678 55.1593C442.502 55.1593 440.646 55.6286 439.11 56.5673C437.616 57.5059 436.464 58.7859 435.654 60.4073C434.843 61.9859 434.438 63.8206 434.438 65.9113C434.438 67.9593 434.843 69.7939 435.654 71.4153C436.507 72.9939 437.659 74.2526 439.11 75.1913C440.603 76.1299 442.31 76.5993 444.23 76.5993C445.296 76.5993 446.214 76.5353 446.982 76.4073C447.75 76.2793 448.39 76.0873 448.902 75.8313C449.499 75.4899 450.032 75.1273 450.502 74.7433C450.971 74.3593 451.675 74.1673 452.614 74.1673C453.723 74.1673 454.576 74.5299 455.174 75.2553C455.771 75.9379 456.07 76.7913 456.07 77.8153C456.07 78.8819 455.472 79.8633 454.278 80.7593C453.083 81.6126 451.504 82.3166 449.542 82.8713C447.622 83.3833 445.531 83.6393 443.27 83.6393C439.899 83.6393 436.976 82.8713 434.502 81.3353C432.027 79.7566 430.107 77.6233 428.742 74.9353C427.419 72.2473 426.758 69.2393 426.758 65.9113C426.758 62.4126 427.462 59.3406 428.87 56.6953C430.32 54.0073 432.304 51.9166 434.822 50.4233C437.382 48.8873 440.304 48.1193 443.59 48.1193ZM478.375 83.6393C474.749 83.6393 471.591 82.8926 468.903 81.3993C466.258 79.8633 464.21 77.7939 462.759 75.1913C461.351 72.5886 460.647 69.6446 460.647 66.3593C460.647 62.5193 461.415 59.2553 462.951 56.5673C464.53 53.8366 466.578 51.7459 469.095 50.2953C471.613 48.8446 474.279 48.1193 477.095 48.1193C479.271 48.1193 481.319 48.5673 483.239 49.4633C485.202 50.3593 486.93 51.5966 488.423 53.1753C489.917 54.7113 491.09 56.5033 491.943 58.5513C492.839 60.5993 493.287 62.7753 493.287 65.0793C493.245 66.1033 492.839 66.9353 492.071 67.5753C491.303 68.2153 490.407 68.5353 489.383 68.5353H464.935L463.015 62.1353H486.503L485.095 63.4153V61.6873C485.01 60.4499 484.562 59.3406 483.751 58.3593C482.983 57.3779 482.002 56.6099 480.807 56.0553C479.655 55.4579 478.418 55.1593 477.095 55.1593C475.815 55.1593 474.621 55.3299 473.511 55.6713C472.402 56.0126 471.442 56.5886 470.631 57.3993C469.821 58.2099 469.181 59.2979 468.711 60.6633C468.242 62.0286 468.007 63.7566 468.007 65.8473C468.007 68.1513 468.477 70.1139 469.415 71.7353C470.397 73.3139 471.634 74.5299 473.127 75.3833C474.663 76.1939 476.285 76.5993 477.991 76.5993C479.57 76.5993 480.829 76.4713 481.767 76.2153C482.706 75.9593 483.453 75.6606 484.007 75.3193C484.605 74.9353 485.138 74.6153 485.607 74.3593C486.375 73.9753 487.101 73.7833 487.783 73.7833C488.722 73.7833 489.49 74.1033 490.087 74.7433C490.727 75.3833 491.047 76.1299 491.047 76.9833C491.047 78.1353 490.45 79.1806 489.255 80.1193C488.146 81.0579 486.589 81.8899 484.583 82.6153C482.578 83.2979 480.509 83.6393 478.375 83.6393Z" fill="#0968A8"/>
<path d="M51.1094 0.299805C66.1002 0.300038 78.2528 12.4525 78.2529 27.4434C78.2528 44.4214 64.4889 58.1855 47.5107 58.1855H44.5908V99.917C44.5907 101.85 43.0237 103.417 41.0908 103.417C39.1579 103.417 37.591 101.85 37.5908 99.917V55.1992C37.5908 55.1138 37.5946 55.0292 37.6006 54.9453C37.5943 54.8595 37.5899 54.7729 37.5898 54.6855C37.5898 52.7528 39.1572 51.1859 41.0898 51.1855H47.5107C60.6229 51.1855 71.2528 40.5555 71.2529 27.4434C71.2528 16.3185 62.2342 7.30004 51.1094 7.2998H3.5C1.56731 7.29954 0.000130362 5.73253 0 3.7998C0 1.86697 1.56723 0.300068 3.5 0.299805H51.1094Z" fill="#0099FF"/>
</svg>
