<svg width="490" height="106" viewBox="0 0 490 106" fill="none" xmlns="http://www.w3.org/2000/svg">
<path d="M18.7974 25.9672H52.498" stroke="#0968A8" stroke-width="8" stroke-linecap="square"/>
<path d="M5.52124 25.9672L5.01062 94.3933" stroke="#0968A8" stroke-width="8" stroke-linecap="square"/>
<path d="M6.03198 94.3897H27.4778" stroke="#0968A8" stroke-width="8" stroke-linecap="round"/>
<path d="M6.54248 50.4767H25.9459" stroke="#0968A8" stroke-width="8" stroke-linecap="round"/>
<path d="M87.704 45.2H109.144C110.253 45.2 111.171 45.5627 111.896 46.288C112.664 46.9707 113.048 47.8667 113.048 48.976C113.048 50.0427 112.664 50.9173 111.896 51.6C111.171 52.24 110.253 52.56 109.144 52.56H91.224L91.8 51.472V63.952L91.288 63.44H106.264C107.373 63.44 108.291 63.8027 109.016 64.528C109.784 65.2107 110.168 66.1067 110.168 67.216C110.168 68.2827 109.784 69.1573 109.016 69.84C108.291 70.48 107.373 70.8 106.264 70.8H91.48L91.8 70.288V83.216L91.288 82.64H109.144C110.253 82.64 111.171 83.024 111.896 83.792C112.664 84.5173 113.048 85.3707 113.048 86.352C113.048 87.4187 112.664 88.2933 111.896 88.976C111.171 89.6587 110.253 90 109.144 90H87.704C86.5947 90 85.656 89.6373 84.888 88.912C84.1627 88.144 83.8 87.2053 83.8 86.096V49.104C83.8 47.9947 84.1627 47.0773 84.888 46.352C85.656 45.584 86.5947 45.2 87.704 45.2ZM148.145 42.64C149.254 42.64 150.171 43.0027 150.896 43.728C151.622 44.4533 151.985 45.392 151.985 46.544V86.096C151.985 87.2053 151.622 88.144 150.896 88.912C150.171 89.6373 149.254 90 148.145 90C147.035 90 146.118 89.6373 145.392 88.912C144.667 88.144 144.305 87.2053 144.305 86.096V82.96L145.713 83.536C145.713 84.0907 145.414 84.7733 144.817 85.584C144.219 86.352 143.409 87.12 142.385 87.888C141.361 88.656 140.145 89.3173 138.736 89.872C137.371 90.384 135.878 90.64 134.257 90.64C131.312 90.64 128.646 89.8933 126.257 88.4C123.867 86.864 121.968 84.7733 120.56 82.128C119.195 79.44 118.512 76.368 118.512 72.912C118.512 69.4133 119.195 66.3413 120.56 63.696C121.968 61.008 123.846 58.9173 126.193 57.424C128.539 55.888 131.142 55.12 134 55.12C135.835 55.12 137.521 55.3973 139.057 55.952C140.593 56.5067 141.915 57.2107 143.024 58.064C144.177 58.9173 145.051 59.792 145.649 60.688C146.289 61.5413 146.609 62.2667 146.609 62.864L144.305 63.696V46.544C144.305 45.4347 144.667 44.5173 145.392 43.792C146.118 43.024 147.035 42.64 148.145 42.64ZM135.217 83.6C137.094 83.6 138.737 83.1307 140.145 82.192C141.553 81.2533 142.641 79.9733 143.409 78.352C144.219 76.7307 144.625 74.9173 144.625 72.912C144.625 70.864 144.219 69.0293 143.409 67.408C142.641 65.7867 141.553 64.5067 140.145 63.568C138.737 62.6293 137.094 62.16 135.217 62.16C133.382 62.16 131.761 62.6293 130.352 63.568C128.944 64.5067 127.835 65.7867 127.024 67.408C126.256 69.0293 125.872 70.864 125.872 72.912C125.872 74.9173 126.256 76.7307 127.024 78.352C127.835 79.9733 128.944 81.2533 130.352 82.192C131.761 83.1307 133.382 83.6 135.217 83.6ZM187.348 55.76C188.457 55.76 189.375 56.144 190.1 56.912C190.825 57.6373 191.188 58.5547 191.188 59.664V75.92C191.188 80.4427 189.929 84.0267 187.412 86.672C184.895 89.3173 181.268 90.64 176.532 90.64C171.796 90.64 168.169 89.3173 165.652 86.672C163.177 84.0267 161.94 80.4427 161.94 75.92V59.664C161.94 58.5547 162.303 57.6373 163.028 56.912C163.753 56.144 164.671 55.76 165.78 55.76C166.889 55.76 167.807 56.144 168.532 56.912C169.257 57.6373 169.62 58.5547 169.62 59.664V75.92C169.62 78.5227 170.196 80.464 171.348 81.744C172.5 82.9813 174.228 83.6 176.532 83.6C178.879 83.6 180.628 82.9813 181.78 81.744C182.932 80.464 183.508 78.5227 183.508 75.92V59.664C183.508 58.5547 183.871 57.6373 184.596 56.912C185.321 56.144 186.239 55.76 187.348 55.76Z" fill="#0099FF"/>
<path d="M219.278 45.2C221.497 45.2 223.566 45.84 225.486 47.12C227.449 48.4 229.028 50.128 230.222 52.304C231.417 54.48 232.014 56.912 232.014 59.6C232.014 62.2453 231.417 64.656 230.222 66.832C229.028 69.008 227.449 70.7573 225.486 72.08C223.566 73.36 221.497 74 219.278 74H207.502L208.142 72.848V86.096C208.142 87.2053 207.801 88.144 207.118 88.912C206.436 89.6373 205.54 90 204.43 90C203.364 90 202.489 89.6373 201.806 88.912C201.124 88.144 200.782 87.2053 200.782 86.096V49.104C200.782 47.9947 201.145 47.0773 201.87 46.352C202.638 45.584 203.577 45.2 204.686 45.2H219.278ZM219.278 66.704C220.089 66.704 220.878 66.3627 221.646 65.68C222.414 64.9973 223.054 64.1227 223.566 63.056C224.078 61.9467 224.334 60.7947 224.334 59.6C224.334 58.3627 224.078 57.2107 223.566 56.144C223.054 55.0773 222.414 54.224 221.646 53.584C220.878 52.9013 220.089 52.56 219.278 52.56H207.374L208.142 51.408V67.728L207.438 66.704H219.278ZM243.185 90C242.076 90 241.158 89.6373 240.433 88.912C239.708 88.144 239.345 87.2053 239.345 86.096V59.664C239.345 58.5547 239.708 57.6373 240.433 56.912C241.158 56.144 242.076 55.76 243.185 55.76C244.294 55.76 245.212 56.144 245.937 56.912C246.662 57.6373 247.025 58.5547 247.025 59.664V65.68L246.577 61.392C247.046 60.368 247.644 59.472 248.369 58.704C249.137 57.8933 249.99 57.232 250.929 56.72C251.868 56.1653 252.87 55.76 253.937 55.504C255.004 55.248 256.07 55.12 257.137 55.12C258.417 55.12 259.484 55.4827 260.337 56.208C261.233 56.9333 261.681 57.7867 261.681 58.768C261.681 60.176 261.318 61.2 260.593 61.84C259.868 62.4373 259.078 62.736 258.225 62.736C257.414 62.736 256.668 62.5867 255.985 62.288C255.345 61.9893 254.598 61.84 253.745 61.84C252.977 61.84 252.188 62.032 251.377 62.416C250.609 62.7573 249.884 63.312 249.201 64.08C248.561 64.848 248.028 65.808 247.601 66.96C247.217 68.0693 247.025 69.392 247.025 70.928V86.096C247.025 87.2053 246.662 88.144 245.937 88.912C245.212 89.6373 244.294 90 243.185 90ZM282.425 90.64C278.799 90.64 275.641 89.8933 272.953 88.4C270.308 86.864 268.26 84.7947 266.809 82.192C265.401 79.5893 264.697 76.6453 264.697 73.36C264.697 69.52 265.465 66.256 267.001 63.568C268.58 60.8373 270.628 58.7467 273.145 57.296C275.663 55.8453 278.329 55.12 281.145 55.12C283.321 55.12 285.369 55.568 287.289 56.464C289.252 57.36 290.98 58.5973 292.473 60.176C293.967 61.712 295.14 63.504 295.993 65.552C296.889 67.6 297.337 69.776 297.337 72.08C297.295 73.104 296.889 73.936 296.121 74.576C295.353 75.216 294.457 75.536 293.433 75.536H268.985L267.065 69.136H290.553L289.145 70.416V68.688C289.06 67.4507 288.612 66.3413 287.801 65.36C287.033 64.3787 286.052 63.6107 284.857 63.056C283.705 62.4587 282.468 62.16 281.145 62.16C279.865 62.16 278.671 62.3307 277.561 62.672C276.452 63.0133 275.492 63.5893 274.681 64.4C273.871 65.2107 273.231 66.2987 272.761 67.664C272.292 69.0293 272.057 70.7573 272.057 72.848C272.057 75.152 272.527 77.1147 273.465 78.736C274.447 80.3147 275.684 81.5307 277.177 82.384C278.713 83.1947 280.335 83.6 282.041 83.6C283.62 83.6 284.879 83.472 285.817 83.216C286.756 82.96 287.503 82.6613 288.057 82.32C288.655 81.936 289.188 81.616 289.657 81.36C290.425 80.976 291.151 80.784 291.833 80.784C292.772 80.784 293.54 81.104 294.137 81.744C294.777 82.384 295.097 83.1307 295.097 83.984C295.097 85.136 294.5 86.1813 293.305 87.12C292.196 88.0587 290.639 88.8907 288.633 89.616C286.628 90.2987 284.559 90.64 282.425 90.64ZM302.703 84.688C302.277 84.0907 302.085 83.3227 302.127 82.384C302.17 81.4453 302.725 80.6347 303.791 79.952C304.474 79.5253 305.199 79.3547 305.967 79.44C306.735 79.4827 307.482 79.8667 308.207 80.592C309.445 81.8293 310.746 82.7893 312.111 83.472C313.477 84.1547 315.183 84.496 317.231 84.496C317.871 84.4533 318.575 84.368 319.343 84.24C320.111 84.0693 320.773 83.728 321.327 83.216C321.925 82.6613 322.223 81.8293 322.223 80.72C322.223 79.7813 321.903 79.0347 321.263 78.48C320.623 77.9253 319.77 77.456 318.703 77.072C317.679 76.688 316.527 76.3253 315.247 75.984C313.925 75.6 312.559 75.1733 311.151 74.704C309.786 74.2347 308.527 73.6373 307.375 72.912C306.223 72.144 305.285 71.1413 304.559 69.904C303.834 68.6667 303.471 67.1093 303.471 65.232C303.471 63.0987 304.069 61.2853 305.263 59.792C306.458 58.2987 307.994 57.1467 309.871 56.336C311.791 55.5253 313.797 55.12 315.887 55.12C317.21 55.12 318.597 55.2907 320.047 55.632C321.498 55.9307 322.885 56.4427 324.207 57.168C325.53 57.8507 326.639 58.768 327.535 59.92C328.005 60.56 328.282 61.328 328.367 62.224C328.453 63.12 328.047 63.9307 327.151 64.656C326.511 65.168 325.765 65.4027 324.911 65.36C324.058 65.2747 323.354 64.976 322.799 64.464C322.074 63.5253 321.093 62.7787 319.855 62.224C318.661 61.6693 317.274 61.392 315.695 61.392C315.055 61.392 314.351 61.4773 313.583 61.648C312.858 61.776 312.218 62.096 311.663 62.608C311.109 63.0773 310.831 63.8453 310.831 64.912C310.831 65.8933 311.151 66.6827 311.791 67.28C312.431 67.8347 313.285 68.304 314.351 68.688C315.461 69.0293 316.634 69.3707 317.871 69.712C319.151 70.0533 320.453 70.4587 321.775 70.928C323.098 71.3973 324.314 72.016 325.423 72.784C326.533 73.552 327.429 74.5547 328.111 75.792C328.794 76.9867 329.135 78.5227 329.135 80.4C329.135 82.576 328.495 84.432 327.215 85.968C325.935 87.504 324.335 88.6773 322.415 89.488C320.495 90.256 318.533 90.64 316.527 90.64C314.01 90.64 311.493 90.2133 308.975 89.36C306.458 88.464 304.367 86.9067 302.703 84.688ZM352.33 90.64C348.704 90.64 345.546 89.8933 342.858 88.4C340.213 86.864 338.165 84.7947 336.714 82.192C335.306 79.5893 334.602 76.6453 334.602 73.36C334.602 69.52 335.37 66.256 336.906 63.568C338.485 60.8373 340.533 58.7467 343.05 57.296C345.568 55.8453 348.234 55.12 351.05 55.12C353.226 55.12 355.274 55.568 357.194 56.464C359.157 57.36 360.885 58.5973 362.378 60.176C363.872 61.712 365.045 63.504 365.898 65.552C366.794 67.6 367.242 69.776 367.242 72.08C367.2 73.104 366.794 73.936 366.026 74.576C365.258 75.216 364.362 75.536 363.338 75.536H338.89L336.97 69.136H360.458L359.05 70.416V68.688C358.965 67.4507 358.517 66.3413 357.706 65.36C356.938 64.3787 355.957 63.6107 354.762 63.056C353.61 62.4587 352.373 62.16 351.05 62.16C349.77 62.16 348.576 62.3307 347.466 62.672C346.357 63.0133 345.397 63.5893 344.586 64.4C343.776 65.2107 343.136 66.2987 342.666 67.664C342.197 69.0293 341.962 70.7573 341.962 72.848C341.962 75.152 342.432 77.1147 343.37 78.736C344.352 80.3147 345.589 81.5307 347.082 82.384C348.618 83.1947 350.24 83.6 351.946 83.6C353.525 83.6 354.784 83.472 355.722 83.216C356.661 82.96 357.408 82.6613 357.962 82.32C358.56 81.936 359.093 81.616 359.562 81.36C360.33 80.976 361.056 80.784 361.738 80.784C362.677 80.784 363.445 81.104 364.042 81.744C364.682 82.384 365.002 83.1307 365.002 83.984C365.002 85.136 364.405 86.1813 363.21 87.12C362.101 88.0587 360.544 88.8907 358.538 89.616C356.533 90.2987 354.464 90.64 352.33 90.64ZM392.896 55.12C396.054 55.12 398.443 55.7813 400.064 57.104C401.728 58.4267 402.859 60.1973 403.456 62.416C404.096 64.592 404.416 67.024 404.416 69.712V86.096C404.416 87.2053 404.054 88.144 403.328 88.912C402.603 89.6373 401.686 90 400.576 90C399.467 90 398.55 89.6373 397.824 88.912C397.099 88.144 396.736 87.2053 396.736 86.096V69.712C396.736 68.304 396.544 67.0453 396.16 65.936C395.819 64.784 395.179 63.8667 394.24 63.184C393.302 62.5013 391.958 62.16 390.208 62.16C388.502 62.16 387.051 62.5013 385.856 63.184C384.704 63.8667 383.808 64.784 383.168 65.936C382.571 67.0453 382.272 68.304 382.272 69.712V86.096C382.272 87.2053 381.91 88.144 381.184 88.912C380.459 89.6373 379.542 90 378.432 90C377.323 90 376.406 89.6373 375.68 88.912C374.955 88.144 374.592 87.2053 374.592 86.096V59.664C374.592 58.5547 374.955 57.6373 375.68 56.912C376.406 56.144 377.323 55.76 378.432 55.76C379.542 55.76 380.459 56.144 381.184 56.912C381.91 57.6373 382.272 58.5547 382.272 59.664V62.416L381.312 62.224C381.696 61.4987 382.251 60.7307 382.976 59.92C383.702 59.0667 384.555 58.2773 385.536 57.552C386.518 56.8267 387.627 56.2507 388.864 55.824C390.102 55.3547 391.446 55.12 392.896 55.12ZM428.59 55.12C431.022 55.12 433.134 55.376 434.926 55.888C436.76 56.4 438.168 57.1253 439.15 58.064C440.174 58.96 440.686 60.048 440.686 61.328C440.686 62.1813 440.43 62.992 439.918 63.76C439.406 64.4853 438.659 64.848 437.678 64.848C436.995 64.848 436.419 64.7627 435.95 64.592C435.523 64.3787 435.139 64.1227 434.798 63.824C434.456 63.5253 434.051 63.248 433.582 62.992C433.155 62.736 432.494 62.544 431.598 62.416C430.744 62.2453 430.104 62.16 429.678 62.16C427.502 62.16 425.646 62.6293 424.11 63.568C422.616 64.5067 421.464 65.7867 420.654 67.408C419.843 68.9867 419.438 70.8213 419.438 72.912C419.438 74.96 419.843 76.7947 420.654 78.416C421.507 79.9947 422.659 81.2533 424.11 82.192C425.603 83.1307 427.31 83.6 429.23 83.6C430.296 83.6 431.214 83.536 431.982 83.408C432.75 83.28 433.39 83.088 433.902 82.832C434.499 82.4907 435.032 82.128 435.502 81.744C435.971 81.36 436.675 81.168 437.614 81.168C438.723 81.168 439.576 81.5307 440.174 82.256C440.771 82.9387 441.07 83.792 441.07 84.816C441.07 85.8827 440.472 86.864 439.278 87.76C438.083 88.6133 436.504 89.3173 434.542 89.872C432.622 90.384 430.531 90.64 428.27 90.64C424.899 90.64 421.976 89.872 419.502 88.336C417.027 86.7573 415.107 84.624 413.742 81.936C412.419 79.248 411.758 76.24 411.758 72.912C411.758 69.4133 412.462 66.3413 413.87 63.696C415.32 61.008 417.304 58.9173 419.822 57.424C422.382 55.888 425.304 55.12 428.59 55.12ZM463.375 90.64C459.749 90.64 456.591 89.8933 453.903 88.4C451.258 86.864 449.21 84.7947 447.759 82.192C446.351 79.5893 445.647 76.6453 445.647 73.36C445.647 69.52 446.415 66.256 447.951 63.568C449.53 60.8373 451.578 58.7467 454.095 57.296C456.613 55.8453 459.279 55.12 462.095 55.12C464.271 55.12 466.319 55.568 468.239 56.464C470.202 57.36 471.93 58.5973 473.423 60.176C474.917 61.712 476.09 63.504 476.943 65.552C477.839 67.6 478.287 69.776 478.287 72.08C478.245 73.104 477.839 73.936 477.071 74.576C476.303 75.216 475.407 75.536 474.383 75.536H449.935L448.015 69.136H471.503L470.095 70.416V68.688C470.01 67.4507 469.562 66.3413 468.751 65.36C467.983 64.3787 467.002 63.6107 465.807 63.056C464.655 62.4587 463.418 62.16 462.095 62.16C460.815 62.16 459.621 62.3307 458.511 62.672C457.402 63.0133 456.442 63.5893 455.631 64.4C454.821 65.2107 454.181 66.2987 453.711 67.664C453.242 69.0293 453.007 70.7573 453.007 72.848C453.007 75.152 453.477 77.1147 454.415 78.736C455.397 80.3147 456.634 81.5307 458.127 82.384C459.663 83.1947 461.285 83.6 462.991 83.6C464.57 83.6 465.829 83.472 466.767 83.216C467.706 82.96 468.453 82.6613 469.007 82.32C469.605 81.936 470.138 81.616 470.607 81.36C471.375 80.976 472.101 80.784 472.783 80.784C473.722 80.784 474.49 81.104 475.087 81.744C475.727 82.384 476.047 83.1307 476.047 83.984C476.047 85.136 475.45 86.1813 474.255 87.12C473.146 88.0587 471.589 88.8907 469.583 89.616C467.578 90.2987 465.509 90.64 463.375 90.64Z" fill="#0968A8"/>
<path d="M47.5176 0C61.2493 0 72.3815 11.1317 72.3818 24.8633C72.3818 40.3906 59.7939 52.9785 44.2666 52.9785H41.9648V90.3486C41.9647 92.2815 40.3977 93.8486 38.4648 93.8486C36.5321 93.8484 34.965 92.2813 34.9648 90.3486V49.9434C34.9648 49.8653 34.9686 49.7877 34.9736 49.7109C34.9686 49.6341 34.9648 49.5566 34.9648 49.4785C34.9649 47.5457 36.5321 45.9787 38.4648 45.9785H44.2666C55.928 45.9785 65.3818 36.5246 65.3818 24.8633C65.3815 14.9977 57.3833 7 47.5176 7H4.5C2.56705 6.99995 1 5.43297 1 3.5C1.00005 1.56708 2.56708 4.93474e-05 4.5 0H47.5176Z" fill="#0099FF"/>
</svg>
