<svg width="80" height="108" viewBox="0 0 80 108" fill="none" xmlns="http://www.w3.org/2000/svg">
<path d="M20.7178 29.7178H57.7178" stroke="#0968A8" stroke-width="9" stroke-linecap="square"/>
<path d="M5.60327 28.7776L5.05151 102.718" stroke="#0968A8" stroke-width="9" stroke-linecap="round"/>
<path d="M6.15527 102.714H29.3294" stroke="#0968A8" stroke-width="9" stroke-linecap="round"/>
<path d="M6.70679 55.2622H27.6738" stroke="#0968A8" stroke-width="9" stroke-linecap="round"/>
<path d="M51.9844 0C67.2191 9.58646e-05 79.5701 12.3502 79.5703 27.585C79.5703 44.76 65.6467 58.6834 48.4717 58.6836H46.6855L46.5 103.019C46.4895 105.504 44.4665 107.509 41.9814 107.499C39.4962 107.489 37.4896 105.466 37.5 102.98L37.7021 54.667C37.7025 54.5881 37.7047 54.5095 37.709 54.4316C37.7045 54.3495 37.7021 54.2668 37.7021 54.1836C37.7022 51.6984 39.7169 49.6836 42.2021 49.6836H48.4717C60.6761 49.6834 70.5703 39.7894 70.5703 27.585C70.5701 17.3208 62.2486 9.0001 51.9844 9H5.5C3.01474 9 1.00004 6.98525 1 4.5C1 2.01472 3.01472 0 5.5 0H51.9844Z" fill="#0099FF"/>
</svg>
